<?xml version="1.0" standalone="no"?>
<!DOCTYPE svg PUBLIC "-//W3C//DTD SVG 20010904//EN"
 "http://www.w3.org/TR/2001/REC-SVG-20010904/DTD/svg10.dtd">
<svg version="1.0" xmlns="http://www.w3.org/2000/svg"
 width="16508.000000pt" height="5316.000000pt" viewBox="0 0 16508.000000 5316.000000"
 preserveAspectRatio="xMidYMid meet">
<metadata>
Created by potrace 1.15, written by Peter Selinger 2001-2017
</metadata>
<g transform="translate(0.000000,5316.000000) scale(0.100000,-0.100000)"
fill="#000000" stroke="none">
<path d="M28460 47184 c-14 -2 -65 -9 -115 -15 -481 -60 -958 -325 -1283 -714
-399 -476 -558 -1117 -431 -1738 85 -417 327 -833 649 -1111 352 -306 749
-472 1209 -506 826 -62 1606 382 1979 1126 145 289 212 581 212 919 0 381 -92
723 -280 1038 -336 565 -896 924 -1555 997 -84 9 -330 12 -385 4z"/>
<path d="M78150 28630 c-203 -20 -370 -68 -555 -160 -160 -80 -286 -172 -420
-305 -280 -280 -430 -601 -464 -990 -14 -157 -15 -17535 -1 -17711 17 -221 69
-408 166 -594 72 -139 161 -256 293 -387 370 -367 762 -514 1287 -482 154 10
252 28 392 75 207 68 409 191 590 360 304 283 461 588 502 981 7 67 10 2901 8
8963 l-3 8865 -23 108 c-66 312 -196 555 -422 791 -242 252 -554 419 -885 471
-118 19 -346 26 -465 15z"/>
<path d="M134705 28630 c-208 -18 -381 -66 -560 -155 -255 -126 -476 -321
-640 -565 -110 -164 -179 -329 -227 -542 l-23 -103 0 -7750 0 -7750 23 -170
c67 -489 183 -877 382 -1277 216 -432 486 -797 855 -1156 587 -572 1290 -943
2070 -1092 322 -61 637 -80 1375 -80 493 1 700 9 825 35 332 69 604 227 868
504 203 215 325 447 388 741 20 92 23 134 23 340 0 207 -2 247 -22 340 -62
284 -181 519 -374 737 -268 304 -606 490 -975 538 -91 12 -240 15 -728 15
-387 0 -642 4 -692 11 -190 26 -359 107 -495 237 -136 130 -213 259 -260 434
l-23 83 -2 3982 -3 3982 1077 4 c1152 5 1118 3 1319 55 170 45 356 136 517
255 116 85 330 304 404 413 117 171 188 341 235 554 20 93 22 133 22 340 0
206 -3 248 -23 340 -75 349 -250 646 -523 888 -216 191 -447 310 -718 370
l-115 26 -1097 3 -1098 4 -3 2022 -3 2022 -22 100 c-75 326 -202 556 -442 795
-262 263 -544 409 -885 459 -102 15 -326 21 -430 11z"/>
<path d="M65945 23213 c-147 -6 -487 -35 -640 -54 -1479 -187 -2758 -759
-3900 -1745 -280 -241 -611 -570 -857 -851 -1115 -1273 -1715 -2746 -1818
-4463 -14 -236 -14 -12052 1 -12157 43 -321 186 -610 428 -865 260 -273 546
-430 895 -490 162 -27 486 -22 638 11 298 65 557 211 793 446 143 143 234 267
315 430 66 134 98 222 132 370 l23 100 2 2678 c2 1472 5 2677 8 2677 2 0 49
-37 103 -82 447 -374 1068 -695 1727 -893 563 -170 1215 -276 1933 -315 248
-13 905 -13 1115 0 1359 87 2537 475 3622 1195 867 574 1668 1372 2250 2240
817 1218 1225 2603 1225 4160 0 2138 -758 3936 -2296 5445 -1375 1349 -2986
2060 -4889 2160 -171 9 -629 11 -810 3z m885 -3238 c999 -111 1821 -499 2539
-1200 790 -771 1221 -1676 1311 -2755 14 -173 15 -596 0 -770 -80 -973 -449
-1813 -1117 -2545 -439 -481 -965 -862 -1513 -1095 -542 -231 -1095 -340
-1726 -340 -1214 0 -2256 433 -3103 1290 -616 623 -1006 1344 -1170 2165 -155
770 -103 1638 140 2352 265 777 755 1465 1428 2001 675 538 1463 843 2356 911
176 14 682 5 855 -14z"/>
<path d="M90255 23209 c-1969 -109 -3652 -896 -5054 -2362 -1283 -1342 -1967
-2901 -2081 -4737 -13 -213 -13 -800 0 -1005 98 -1535 576 -2841 1473 -4025
375 -495 848 -987 1344 -1398 876 -726 1903 -1239 2973 -1486 667 -153 1301
-213 2080 -195 1695 40 3017 527 3981 1466 l116 113 6 -112 c13 -268 96 -515
250 -743 93 -137 331 -371 477 -468 193 -128 373 -200 590 -238 147 -26 429
-28 570 -5 298 49 552 168 780 369 301 262 464 529 543 886 l21 96 4 3220 c2
2264 0 3287 -8 3445 -96 1954 -852 3612 -2286 5020 -1375 1349 -2986 2060
-4889 2160 -220 11 -672 11 -890 -1z m840 -3249 c962 -81 1776 -429 2500
-1071 137 -121 352 -340 471 -480 436 -510 734 -1085 889 -1714 102 -412 141
-825 124 -1290 -46 -1185 -534 -2227 -1424 -3038 -799 -728 -1710 -1091 -2819
-1123 -742 -22 -1458 131 -2088 447 -900 451 -1655 1249 -2051 2169 -469 1089
-458 2467 28 3550 317 707 890 1381 1565 1839 604 411 1274 645 2030 710 139
12 636 12 775 1z"/>
<path d="M107025 23214 c-566 -34 -1012 -106 -1474 -239 -875 -251 -1649 -681
-2386 -1325 -170 -149 -499 -480 -648 -652 -877 -1010 -1367 -2118 -1511
-3418 -36 -327 -37 -426 -34 -4365 l3 -3870 22 -93 c78 -324 188 -519 437
-768 116 -115 178 -168 266 -227 279 -185 529 -258 885 -258 196 0 278 9 430
48 266 69 489 200 714 417 249 242 382 477 453 802 l22 99 7 3875 c3 2131 9
3893 13 3915 4 22 16 102 27 177 78 538 294 1027 652 1473 105 130 354 379
487 486 486 391 1033 611 1662 670 192 18 615 7 793 -21 723 -111 1328 -436
1833 -984 392 -426 644 -913 757 -1460 64 -316 59 45 65 -4221 5 -3584 7
-3877 22 -3960 70 -371 227 -644 523 -908 284 -253 593 -384 956 -406 550 -32
948 123 1315 512 232 247 350 477 412 802 16 84 17 356 20 3835 3 3794 1 4012
-33 4363 -145 1453 -735 2699 -1790 3776 -368 375 -702 653 -1115 926 -853
565 -1769 881 -2840 980 -155 15 -804 28 -945 19z"/>
<path d="M123215 23213 c-159 -6 -492 -35 -670 -58 -1625 -207 -3043 -905
-4264 -2100 -1198 -1172 -1930 -2540 -2190 -4090 -68 -404 -99 -753 -108
-1205 -32 -1730 432 -3241 1404 -4574 351 -481 817 -983 1293 -1393 1046 -901
2237 -1466 3560 -1687 521 -88 1016 -120 1610 -104 1432 36 2785 474 3975
1286 455 310 797 587 1144 927 739 724 1282 1543 1672 2522 176 442 229 653
230 911 0 312 -82 568 -270 849 -369 548 -885 788 -1557 722 -345 -33 -637
-152 -857 -348 -216 -193 -347 -404 -491 -791 -115 -311 -239 -566 -394 -816
-466 -750 -1192 -1370 -2019 -1723 -602 -257 -1239 -366 -1950 -333 -1029 47
-1781 295 -2398 789 -158 126 -455 428 -455 462 0 5 26 20 58 34 31 14 181 82
332 152 926 427 4844 2200 7875 3565 528 238 1012 459 1076 492 324 166 572
437 709 773 102 248 135 426 127 680 -8 272 -42 394 -200 730 -554 1175 -1364
2140 -2437 2905 -1237 881 -2525 1337 -4010 1420 -158 9 -617 11 -795 3z m695
-3273 c753 -39 1391 -205 1887 -490 284 -164 472 -314 717 -570 l79 -83 -25
-13 c-21 -11 -7290 -3277 -7325 -3291 -10 -4 -13 32 -13 159 0 554 118 1140
332 1643 279 658 741 1257 1332 1729 846 676 1836 977 3016 916z"/>
<path d="M19470 7407 c0 -2616 3 -3847 11 -3918 49 -479 232 -862 579 -1209
370 -371 742 -567 1206 -636 153 -23 510 -23 659 0 375 58 692 199 990 439
124 100 324 304 408 416 230 305 353 632 387 1026 8 91 10 824 8 2470 l-3
2339 -140 58 c-526 217 -1066 490 -1555 783 -192 116 -578 370 -765 505 -546
392 -1023 797 -1562 1325 l-223 217 0 -3815z"/>
</g>
</svg>
